{"title":"The Lone Ranger and the Lost City of Gold (1958) DVDRip [Russian","uid":9042184,"size":734398464,"categoryP":"video","categoryS":"movies","magnet":"?xt=urn:btih:03ad02e6ef567c41c1f2275700742c9433f8fba0&amp;dn=The+Lone+Ranger+and+the+Lost+City+of+Gold+%281958%29+DVDRip+%5BRussian&amp;tr=udp%3A%2F%2Ftracker.openbittorrent.com%3A80&amp;tr=udp%3A%2F%2Fopen.demonii.com%3A1337&amp;tr=udp%3A%2F%2Ftracker.coppersurfer.tk%3A6969&amp;tr=udp%3A%2F%2Fexodus.desync.com%3A6969","seeders":6,"leechers":0,"uploader":"yfjfrj","files":1,"time":1381660716,"description":"General\nComplete name                            : C:UsersivanDesktopLone Ranger and the Lost City of Gold, The (1958).avi\nFormat                                   : AVI\nFormat/Info                              : Audio Video Interleave\nFile size                                : 700 MiB\nDuration                                 : 1h 21mn\nOverall bit rate                         : 1 204 Kbps\nWriting application                      : VirtualDubMod 1.5.4.1 (build 2178/release)\nWriting library                          : VirtualDubMod build 2178/release\n\nVideo\nID                                       : 0\nFormat                                   : MPEG-4 Visual\nFormat settings, BVOP                    : 1\nFormat settings, QPel                    : No\nFormat settings, GMC                     : No warppoints\nFormat settings, Matrix                  : Default (H.263)\nMuxing mode                              : Packed bitstream\nCodec ID                                 : DX50\nCodec ID/Hint                            : DivX 5\nDuration                                 : 1h 21mn\nBit rate                                 : 1 068 Kbps\nWidth                                    : 512 pixels\nHeight                                   : 384 pixels\nDisplay aspect ratio                     : 4:3\nFrame rate                               : 25.000 fps\nColor space                              : YUV\nChroma subsampling                       : 4:2:0\nBit depth                                : 8 bits\nScan type                                : Progressive\nCompression mode                         : Lossy\nBits/(Pixel*Frame)                       : 0.217\nStream size                              : 622 MiB (89%)\nWriting library                          : DivX 5.2.1 (WaffleDay) (UTC 2004-09-08)\n\nAudio\nID                                       : 1\nFormat                                   : MPEG Audio\nFormat version                           : Version 1\nFormat profile                           : Layer 3\nMode                                     : Joint stereo\nMode extension                           : MS Stereo\nCodec ID                                 : 55\nCodec ID/Hint                            : MP3\nDuration                                 : 1h 21mn\nBit rate mode                            : Constant\nBit rate                                 : 128 Kbps\nChannel(s)                               : 2 channels\nSampling rate                            : 48.0 KHz\nCompression mode                         : Lossy\nStream size                              : 74.5 MiB (11%)\nAlignment                                : Aligned on interleaves\nInterleave, duration                     : 80 ms (2.00 video frames)\nInterleave, preload duration             : 504 ms\nWriting library                          : LAME3.96r\nEncoding settings                        : -m j -V 4 -q 2 -lowpass 17.5 -b 128\nLanguage                                 : Russian\n\n","torrent":{"xt":"urn:btih:03ad02e6ef567c41c1f2275700742c9433f8fba0","amp;dn":"The+Lone+Ranger+and+the+Lost+City+of+Gold+%281958%29+DVDRip+%5BRussian","amp;tr":["udp%3A%2F%2Ftracker.openbittorrent.com%3A80","udp%3A%2F%2Fopen.demonii.com%3A1337","udp%3A%2F%2Ftracker.coppersurfer.tk%3A6969","udp%3A%2F%2Fexodus.desync.com%3A6969"],"infoHash":"03ad02e6ef567c41c1f2275700742c9433f8fba0","infoHashBuffer":{"type":"Buffer","data":[3,173,2,230,239,86,124,65,193,242,39,87,0,116,44,148,51,248,251,160]},"announce":[],"urlList":[]}}